<?xml version="1.0" encoding="utf-8"?>
<!-- Svg Vector Icons : http://www.onlinewebfonts.com/icon -->
<!DOCTYPE svg PUBLIC "-//W3C//DTD SVG 1.1//EN" "http://www.w3.org/Graphics/SVG/1.1/DTD/svg11.dtd">
<svg version="1.1" xmlns="http://www.w3.org/2000/svg" xmlns:xlink="http://www.w3.org/1999/xlink" x="0px" y="0px" viewBox="0 0 1000 1000" enable-background="new 0 0 1000 1000" xml:space="preserve">
<metadata> Svg Vector Icons : http://www.onlinewebfonts.com/icon </metadata>
<g><g><g><path d="M827.7,696.9V568.8h-47v102.4c0,16-13.1,29.1-29.1,29.1H169.5c-16,0-29.1-13.1-29.1-29.1V322c0-16.1,13.1-29.1,29.1-29.1h333V263H126.8c-18.4,0-33.4,15-33.4,33.4v200.3v200.2v33.4L10,830.4c0,27.7,22.4,50.1,50,50.1h801c27.6,0,50-22.4,50-50.1l-83.4-100.1L827.7,696.9L827.7,696.9z M527.4,863.8H393.8c-4.6,0-8.4-3.7-8.4-8.3c0-4.6,3.7-8.4,8.4-8.4h133.5c4.6,0,8.4,3.7,8.4,8.4C535.6,860,531.9,863.8,527.4,863.8z M323,830.4l25.5-30.6h224.2l25.5,30.6H323z"/><g><rect x="405.8" y="509.2" width="69.7" height="69.6"/><rect x="449.4" y="413.5" width="69.7" height="69.7"/><rect x="518" y="500.9" width="69.7" height="69.7"/><rect x="573.4" y="385.2" width="82.7" height="82.7"/><rect x="690.3" y="131.7" width="82.7" height="82.7"/><rect x="540.3" y="281.3" width="82.7" height="82.7"/><rect x="670.3" y="245.9" width="118.1" height="118.1"/><rect x="758.5" y="388.2" width="142.8" height="142.9"/><rect x="812.5" y="119.5" width="177.5" height="177.5"/><rect x="648.9" y="477.3" width="82.7" height="82.7"/></g></g></g><g></g><g></g><g></g><g></g><g></g><g></g><g></g><g></g><g></g><g></g><g></g><g></g><g></g><g></g><g></g></g>
</svg>