<svg version="1.1" id="Layer_1" xmlns="http://www.w3.org/2000/svg" xmlns:xlink="http://www.w3.org/1999/xlink" x="0px" y="0px"
	 width="100%" viewBox="0 0 729 757" enable-background="new 0 0 729 757" xml:space="preserve">
<path fill="#030303" opacity="1.000000" stroke="none" 
	d="
M309.936951,558.952393 
	C273.435272,563.841614 230.979874,561.078125 183.937073,539.611267 
	C184.217896,536.732910 187.043243,536.943665 188.698975,535.984314 
	C202.589478,527.936035 213.749496,517.020996 222.231232,503.529205 
	C224.119385,500.525787 225.798843,500.668915 228.152527,501.407410 
	C253.789551,509.451447 279.744904,511.838287 306.432007,507.384247 
	C358.760681,498.650726 398.855988,471.857025 427.414642,427.302002 
	C438.995056,409.235168 446.558228,389.552460 450.528351,368.670593 
	C454.175934,349.485352 454.631348,330.144287 451.620209,310.558533 
	C446.536530,277.492004 433.245575,248.369919 411.737732,223.099304 
	C394.409790,202.739838 373.271240,187.250610 348.530151,176.647278 
	C324.941040,166.537674 300.340454,161.228790 274.862915,162.463821 
	C218.182129,165.211456 172.495697,189.284515 138.723328,235.303024 
	C126.691101,251.698257 117.977753,269.770782 112.721992,289.277588 
	C106.305679,313.091736 103.697823,337.345673 108.639061,361.889801 
	C109.285004,365.098267 108.690720,367.085785 105.416672,368.405914 
	C88.368935,375.279510 75.077065,386.834595 64.217049,402.248596 
	C61.039013,396.011871 59.975185,389.447479 58.595833,383.155121 
	C54.274361,363.441437 52.492657,343.408417 53.702835,323.240631 
	C57.698112,256.658600 85.512161,201.926956 136.482101,159.075714 
	C159.421463,139.790237 185.622116,126.042458 214.257126,117.445580 
	C245.198364,108.156311 276.878479,105.410774 309.028534,109.701042 
	C338.829071,113.677780 366.864563,122.879150 392.969452,137.902634 
	C395.910126,139.595001 396.278564,142.259277 396.817291,144.959106 
	C402.860046,175.241577 419.820038,197.612305 446.360382,212.853394 
	C454.488617,217.521133 463.215637,221.072510 472.592102,222.419113 
	C476.921112,223.040817 479.062653,225.696747 480.822693,229.199692 
	C488.019562,243.523636 494.300507,258.274719 498.373352,273.752441 
	C505.230194,299.810059 507.880798,326.284515 505.578491,353.316803 
	C503.846252,373.655151 499.623627,393.349152 492.706085,412.412720 
	C484.626648,434.678314 473.079681,455.154633 458.471252,473.855316 
	C456.465973,476.422333 453.183014,478.911255 452.959839,481.638275 
	C452.801941,483.568146 456.799805,485.847321 458.956970,487.955780 
	C465.948853,494.789795 472.576599,502.063446 480.073669,508.289948 
	C485.085907,512.452820 485.268890,516.782288 483.813751,522.181274 
	C480.605011,534.086548 469.531586,543.358948 457.098053,544.783020 
	C454.582642,545.071106 452.799713,544.244019 451.348785,542.669067 
	C442.008362,532.530151 431.023132,523.995728 422.462158,513.113953 
	C420.637177,510.794159 419.276489,512.847839 418.394592,513.552490 
	C406.415649,523.123535 393.356842,530.876099 379.660339,537.726013 
	C362.134583,546.491150 343.723663,552.434570 324.639771,556.620239 
	C319.897400,557.660339 315.059875,557.727173 309.936951,558.952393 
z"/>
<path fill="#020202" opacity="1.000000" stroke="none" 
	d="
M422.677917,71.711884 
	C436.589844,53.299213 454.632904,42.024647 476.815948,37.474266 
	C516.529236,29.327927 556.237610,48.786808 574.679565,85.554886 
	C585.086304,106.303116 586.910583,127.922516 580.390259,150.284607 
	C571.992188,179.086655 553.505127,199.142075 525.830322,209.432526 
	C485.356262,224.482178 442.011292,209.914017 418.720581,173.511292 
	C404.421326,151.161957 401.013397,126.529968 408.390961,100.650032 
	C411.370636,90.197487 416.119354,80.735374 422.677917,71.711884 
z"/>
<path fill="#020202" opacity="1.000000" stroke="none" 
	d="
M495.074463,517.152344 
	C495.461273,513.701355 497.489594,513.123901 500.090912,513.225525 
	C511.501282,513.671509 521.155396,518.261536 529.292786,526.010864 
	C534.599365,531.064331 539.281494,536.779785 544.648438,541.762329 
	C561.482849,557.391113 577.335938,574.003418 593.635193,590.167297 
	C611.033325,607.420837 628.382141,624.724365 645.704163,642.054382 
	C661.990784,658.348450 661.632507,685.620117 644.811951,701.666443 
	C639.512573,706.721924 635.040039,712.796082 628.794128,716.684143 
	C618.625122,723.014526 607.719788,722.382263 596.655701,718.943604 
	C584.641785,715.209473 576.609314,706.242310 568.164917,697.790649 
	C540.641541,670.243713 513.131042,642.683838 485.648865,615.095886 
	C476.689575,606.102112 467.510223,597.296387 459.030945,587.865662 
	C452.310760,580.391296 449.988098,571.081848 451.174072,561.029236 
	C451.611877,557.318054 452.798035,555.226440 457.477295,554.746338 
	C475.963043,552.849854 491.164062,540.972046 495.074463,517.152344 
z"/>
<path fill="#020202" opacity="1.000000" stroke="none" 
	d="
M312.593597,342.705261 
	C311.963989,338.500824 313.267487,337.223480 317.369110,337.262543 
	C340.364502,337.481598 363.363464,337.432739 386.360138,337.295624 
	C389.803040,337.275085 391.268494,337.720062 391.230225,341.778198 
	C391.008698,365.273529 391.138916,388.772034 391.112488,412.269409 
	C391.104645,419.238556 389.685699,420.687073 382.554108,420.677734 
	C332.727661,420.612640 282.901337,420.486176 233.074921,420.440308 
	C230.625992,420.438049 229.659775,419.786163 228.519562,417.291962 
	C219.621414,397.827179 206.093903,382.412354 187.152145,372.106323 
	C184.849762,370.853577 184.216888,369.384369 184.242416,366.995514 
	C184.331406,358.664032 184.508514,350.321716 184.173767,342.002747 
	C184.016525,338.095032 185.400635,337.282166 188.958160,337.305054 
	C209.288422,337.435974 229.619965,337.367798 249.951080,337.367218 
	C251.117615,337.367188 252.284195,337.362366 253.450699,337.368164 
	C256.949646,337.385559 261.076202,336.251923 263.786224,337.724182 
	C267.057922,339.501556 264.567108,344.055023 265.169434,347.336731 
	C265.793335,350.736389 267.730621,352.666138 271.221649,352.679810 
	C282.886810,352.725494 294.553223,352.785858 306.217194,352.659271 
	C311.282928,352.604309 312.597137,350.425049 312.593597,342.705261 
z"/>
<path fill="#030303" opacity="1.000000" stroke="none" 
	d="
M591.999756,439.000000 
	C591.999268,415.512390 592.005005,392.524780 591.993958,369.537170 
	C591.991028,363.328430 590.628845,361.957397 584.383667,361.917969 
	C578.262024,361.879333 572.139893,361.909576 564.725586,361.909576 
	C575.357117,350.759155 585.072876,340.595825 594.757996,330.403442 
	C603.152771,321.569000 611.474854,312.665131 619.929565,303.888702 
	C621.183044,302.587555 622.465820,300.430481 624.933167,303.040222 
	C643.149963,322.308136 661.483521,341.465607 680.971802,361.907562 
	C675.346497,361.907562 671.008240,361.899536 666.669922,361.909271 
	C658.363159,361.927948 657.810791,362.468475 657.810181,370.613525 
	C657.807739,404.761780 657.813599,438.910065 657.806885,473.058319 
	C657.805115,482.002167 653.780518,485.974701 644.733337,485.980743 
	C631.407166,485.989655 618.081055,485.991150 604.754883,485.979462 
	C595.775452,485.971619 592.004211,482.120941 591.999939,472.982147 
	C591.994751,461.821442 591.999390,450.660706 591.999756,439.000000 
z"/>
<path fill="#020202" opacity="1.000000" stroke="none" 
	d="
M365.176727,692.740479 
	C353.480164,704.006287 342.036224,715.076782 330.567871,726.121826 
	C326.469208,730.069336 322.311523,733.955444 317.370422,738.637329 
	C317.370422,732.851318 317.398041,727.934326 317.363403,723.017822 
	C317.320770,716.961975 315.744354,715.385681 309.654633,715.383240 
	C275.678131,715.369629 241.699677,715.174255 207.726379,715.504517 
	C198.208588,715.597107 192.592422,711.496826 193.001205,701.006042 
	C193.493668,688.367310 193.109055,675.694702 193.120560,663.036804 
	C193.129333,653.375549 196.865082,649.716797 206.747772,649.714478 
	C240.724274,649.706421 274.700775,649.714050 308.677277,649.710144 
	C316.088287,649.709290 317.340637,648.437988 317.368469,641.024109 
	C317.389099,635.529907 317.427277,630.035645 317.496674,624.541931 
	C317.499817,624.295044 317.889740,624.052917 318.374573,623.488098 
	C327.324860,631.948792 336.290680,640.360046 345.183594,648.847717 
	C354.989197,658.206482 364.595459,667.779480 374.570801,676.952148 
	C377.870544,679.986389 377.977814,681.640015 374.408752,684.414124 
	C372.605652,685.815491 370.125183,686.736328 368.939575,689.427612 
	C368.154694,691.271423 366.451538,691.504517 365.176727,692.740479 
z"/>
<path fill="#010101" opacity="1.000000" stroke="none" 
	d="
M224.999969,327.083008 
	C212.508575,327.083099 200.516617,327.019379 188.526215,327.128815 
	C185.585602,327.155640 184.115921,326.794403 184.179642,323.148346 
	C184.426926,308.996185 184.248886,294.837006 184.290680,280.680634 
	C184.307205,275.084412 186.445496,272.931213 192.126419,272.928711 
	C256.247009,272.900421 320.367615,272.900513 384.488220,272.920288 
	C390.128693,272.922028 391.062347,273.925812 391.075745,279.774017 
	C391.108887,294.263519 391.005280,308.753998 391.154388,323.242065 
	C391.184692,326.186401 390.628601,327.189911 387.397675,327.168365 
	C363.749054,327.010376 340.098602,327.028168 316.449554,327.150604 
	C313.481323,327.165955 312.458832,326.583984 312.512939,323.381439 
	C312.621948,316.927277 310.636353,315.215149 304.129517,315.208405 
	C293.637054,315.197510 283.144470,315.174652 272.652191,315.217438 
	C267.307648,315.239258 264.908722,317.363495 265.276855,322.751709 
	C265.559662,326.891144 263.833527,327.203217 260.473877,327.151855 
	C248.818283,326.973602 237.158295,327.083038 224.999969,327.083008 
z"/>
<path fill="#040404" opacity="1.000000" stroke="none" 
	d="
M85.873367,513.034119 
	C103.783157,496.082001 121.402695,479.332367 138.850800,462.405975 
	C141.218048,460.109497 142.894775,461.015472 144.614273,462.496246 
	C157.553009,473.638641 170.420456,484.863770 183.313339,496.059418 
	C188.761322,500.790222 194.041458,505.738770 199.736481,510.151306 
	C203.031281,512.704163 201.336243,513.925781 199.317307,515.718506 
	C179.982437,532.887390 157.694839,540.454712 131.770111,537.333496 
	C114.610580,535.267517 99.880173,528.333374 86.965683,517.109009 
	C85.730400,516.035400 84.044472,515.211853 85.873367,513.034119 
z"/>
<path fill="#030303" opacity="1.000000" stroke="none" 
	d="
M191.445343,398.456085 
	C175.745300,413.494476 160.260498,428.243835 144.886459,443.107819 
	C142.225967,445.680084 140.393646,446.110565 137.293533,443.389587 
	C120.174690,428.364349 102.831505,413.594666 85.561958,398.741180 
	C83.446350,396.921600 82.479645,395.405792 85.249252,392.977997 
	C104.967209,375.693542 127.527176,368.088043 153.804352,371.582642 
	C168.914856,373.592163 182.014603,379.643616 194.119370,388.630493 
	C198.052750,391.550720 197.307678,393.370789 194.153595,395.812042 
	C193.255539,396.507202 192.512344,397.402435 191.445343,398.456085 
z"/>
<path fill="#040404" opacity="1.000000" stroke="none" 
	d="
M201.159927,403.048889 
	C204.125565,399.005585 205.912155,399.676575 208.591766,403.332855 
	C224.411713,424.918945 229.904037,448.432098 223.398651,474.672333 
	C220.930954,484.626038 216.615707,493.532074 211.097839,502.059875 
	C209.295044,504.846100 208.122742,504.373413 206.124863,502.652435 
	C187.878799,486.935394 169.604019,471.251587 151.319946,455.578705 
	C148.913437,453.515869 149.695953,451.909058 151.662796,450.047180 
	C168.097275,434.489624 184.480743,418.878143 201.159927,403.048889 
z"/>
<path fill="#040404" opacity="1.000000" stroke="none" 
	d="
M89.594810,495.580658 
	C85.941322,499.137207 82.443298,502.345215 79.175964,505.773132 
	C77.702751,507.318756 77.149910,507.251556 75.887421,505.500610 
	C61.043346,484.912811 54.974354,462.494873 60.411175,437.210785 
	C62.775997,426.213165 67.296509,416.369812 73.207825,406.985168 
	C75.007271,404.128418 76.346764,403.662018 79.274643,406.241364 
	C96.120338,421.081696 113.184723,435.674652 130.245316,450.269287 
	C132.777359,452.435364 133.923050,453.434357 130.557068,456.516388 
	C116.732635,469.174652 103.374214,482.341858 89.594810,495.580658 
z"/>
<path fill="#0E0E0E" opacity="1.000000" stroke="none" 
	d="
M262.178101,262.683258 
	C259.582153,262.683533 257.460327,262.683533 254.196579,262.683533 
	C258.444397,256.354858 262.077881,250.853394 265.819733,245.426666 
	C266.792175,244.016373 268.487701,244.322708 269.976227,244.322723 
	C281.621155,244.322876 293.266418,244.368240 304.910797,244.288086 
	C307.502563,244.270233 309.079712,245.002060 310.378967,247.498169 
	C312.335480,251.257080 315.017365,254.632767 317.274017,258.244385 
	C318.007599,259.418488 319.770264,260.498627 318.773743,262.101349 
	C317.984772,263.370209 316.313049,262.651154 315.054382,262.654144 
	C297.587067,262.695557 280.119629,262.682617 262.178101,262.683258 
z"/>
<path fill="#050505" opacity="1.000000" stroke="none" 
	d="
M275.481964,339.422119 
	C275.749481,334.699982 273.686890,329.214874 276.307892,326.448883 
	C278.971832,323.637634 284.503571,325.870880 288.762787,325.533386 
	C288.928192,325.520264 289.095520,325.531616 289.261963,325.531586 
	C303.107178,325.529877 303.059601,325.527313 302.316010,339.354279 
	C302.207855,341.365112 301.876740,342.409363 299.596741,342.381989 
	C292.441406,342.296082 285.284119,342.326202 278.128082,342.377380 
	C276.323273,342.390289 275.202240,341.926239 275.481964,339.422119 
z"/>
<path fill="#A2A3A4" opacity="1.000000" stroke="none" 
	d="
M365.289368,693.026733 
	C365.994598,691.915283 367.055511,690.884766 368.435730,689.791199 
	C368.619293,691.683716 367.235138,692.490417 365.289368,693.026733 
z"/>
<path fill="#F3F3F3" opacity="1.000000" stroke="none" 
	d="
M538.659912,152.612549 
	C535.810364,155.039368 533.210083,153.941925 530.947693,152.618195 
	C518.057251,145.075806 505.292389,137.318237 492.378204,129.817322 
	C489.741425,128.285782 488.657257,126.357269 488.658752,123.495552 
	C488.668579,104.500099 488.641266,85.504616 488.677582,66.509239 
	C488.684357,62.979031 490.099854,59.954800 494.028473,60.228935 
	C497.652466,60.481808 499.018616,63.245876 498.998444,66.923309 
	C498.905121,83.918724 499.024323,100.915459 498.894135,117.910393 
	C498.871918,120.810600 499.518768,122.543274 502.242676,124.078674 
	C513.679810,130.525497 524.909058,137.339996 536.283875,143.899399 
	C539.925354,145.999298 541.270874,148.534592 538.659912,152.612549 
z"/>
</svg>